<svg width="205" height="271" viewBox="0 0 205 271" fill="none" xmlns="http://www.w3.org/2000/svg">
  <rect width="205" height="271" fill="" />
  <g id="hangman">
    <g id="body">
      <line id="torso" x1="159.5" y1="112.994" x2="160.5" y2="197.994" stroke="black" />
      <line id="leg-right" x1="160.425" y1="196.737" x2="191.425" y2="246.737" stroke="black" />
      <line id="leg-left" x1="160.429" y1="198.256" x2="129.429" y2="250.256" stroke="black" />
      <line id="arm-right" x1="160.369" y1="113.663" x2="191.369" y2="147.663" stroke="black" />
      <line id="arm-left" x1="159.333" y1="114.373" x2="121.333" y2="148.373" stroke="black" />
    </g>
    <g id="head">
      <circle id="face" cx="160" cy="83" r="30.5" fill="white" stroke="black" />
      <circle id="eye-right" cx="172.5" cy="72.5" r="4" fill="white" stroke="black" />
      <circle id="eye-left" cx="144.5" cy="72.5" r="4" fill="white" stroke="black" />
      <path id="mouth" d="M143 89L151 96C151 96 159 87.0741 160.5 93.537C162 100 178 89 178 89" stroke="black" />
    </g>
    <g id="hangman_2">
      <line id="Line 6" x1="158" y1="53" x2="158" y2="10" stroke="black" stroke-width="2" />
      <line id="Line 7" x1="158" y1="11" x2="10" y2="11" stroke="black" stroke-width="2" />
      <line id="Line 8" x1="9.99999" y1="9.99597" x2="11.0202" y2="262.996" stroke="black" stroke-width="2" />
      <line id="Line 9" x1="10" y1="262" x2="93" y2="262" stroke="black" stroke-width="2" />
    </g>
  </g>
</svg>